<?xml version="1.0" encoding="utf-8"?>
<!-- Generator: Adobe Illustrator 15.1.0, SVG Export Plug-In . SVG Version: 6.00 Build 0)  -->
<!DOCTYPE svg PUBLIC "-//W3C//DTD SVG 1.1//EN" "http://www.w3.org/Graphics/SVG/1.1/DTD/svg11.dtd">
<svg version="1.1" id="Layer_2" xmlns="http://www.w3.org/2000/svg" xmlns:xlink="http://www.w3.org/1999/xlink" x="0px" y="0px"
	 width="93.58px" height="650.583px" viewBox="-0.246 0 93.58 650.583" enable-background="new -0.246 0 93.58 650.583"
	 xml:space="preserve">
<polygon fill="#E44D26" points="0,0 93.334,0 85.167,91.166 46.667,102.5 7.667,91.166 "/>
<polygon fill="#F16529" points="46.667,6.5 46.667,94 78.834,84.833 85.668,6.5 "/>
<polygon fill="#FFFFFF" points="75.833,18.667 17.5,18.667 20.667,52.333 60.833,52.333 60.333,66.5 46.667,70.333 33.667,66.667 
	34,58.167 21.333,58.333 22.667,75.667 46.667,82.833 71.333,75.833 74.333,41.667 31.333,41.667 30.667,29.667 75,29.333 "/>
<polygon fill="#0070BA" points="0,110 93.334,110 85.167,201.166 46.666,212.5 7.667,201.166 "/>
<polygon fill="#29A8E0" points="46.667,116.5 46.667,204 78.834,194.833 85.668,116.5 "/>
<polygon fill="#FFFFFF" points="17.792,128.667 75.542,128.667 70.792,185.333 46.667,192.833 21.792,185.583 20.292,167.833 
	31.045,168.062 32.167,177.208 46.667,181.333 59.792,178.333 60.792,162.333 20.792,162.333 19.542,151.333 62.292,151.333 
	63.292,140.083 19.042,140.083 "/>
<polygon fill="#63A814" points="0,220.166 93.333,220.166 85.167,311.332 46.666,322.666 7.667,311.332 "/>
<polygon fill="#8ACF17" points="46.667,226.666 46.667,314.166 78.833,304.999 85.667,226.666 "/>
<polygon fill="#FFFFFF" points="17.792,238.833 75.542,238.833 70.792,295.499 46.667,302.999 21.792,295.749 20.292,277.999 
	31.044,278.228 32.167,287.374 46.667,291.499 59.792,288.499 60.792,272.499 62.292,261.499 63.292,250.249 19.042,250.249 "/>
<polygon fill="#28B8A9" points="47.035,330 0.133,355.49 0.133,405.997 47.035,432.666 93.2,405.997 93.2,355.49 "/>
<polygon fill="#46E8D7" points="46.667,336.254 86.938,358.204 86.938,403.282 46.667,424.522 "/>
<polygon fill="#CD8616" points="46.792,439 -0.246,464.469 -0.246,514.937 46.792,541.583 93.088,514.937 93.088,464.469 "/>
<polygon fill="#FF9C00" points="46.421,445.25 86.808,467.181 86.808,512.224 46.421,533.447 "/>
<polygon fill="#B032C3" points="46.843,548 -0.193,573.468 -0.193,623.937 46.843,650.583 93.141,623.937 93.141,573.468 "/>
<polygon fill="#D346E8" points="46.474,554.25 86.861,576.181 86.861,621.224 46.474,642.447 "/>
<path fill="#FFFFFF" d="M24.725,578.78c0,0-21.794,16.625,1.354,39.5c33.612,21.932,46.913-5.543,46.913-5.543
	s-17.115,15.328-38.91-0.473C14.505,595.642,24.725,578.78,24.725,578.78z"/>
<path fill="#FFFFFF" d="M39.057,575.229c0,0-15.27,11.646,0.947,27.67c23.549,15.363,32.865-3.881,32.865-3.881
	s-11.989,10.737-27.259-0.33C31.897,587.042,39.057,575.229,39.057,575.229z"/>
<path fill="#FFFFFF" d="M51.767,571.812c0,0-9.85,7.514,0.611,17.852c15.19,9.911,21.202-2.505,21.202-2.505
	s-7.734,6.927-17.585-0.214C47.147,579.431,51.767,571.812,51.767,571.812z"/>
<ellipse fill="#FFFFFF" cx="47.404" cy="365.402" rx="9.085" ry="8.732"/>
<ellipse fill="#FFFFFF" cx="67.54" cy="385.699" rx="9.085" ry="8.732"/>
<ellipse fill="#FFFFFF" cx="46.421" cy="404.816" rx="9.085" ry="8.732"/>
<polygon fill="#FFFFFF" points="24.689,350.533 31.688,346.285 65.329,379.327 60.417,384.283 "/>
<rect x="43.474" y="371.774" fill="#FFFFFF" width="6.63" height="30.209"/>
<text transform="matrix(0.6741 0 0 1 10.2222 513.0596)" fill="#FFFFFF" font-family="'Krungthep'" font-size="58.7952" letter-spacing="-1.483">PHP</text>
</svg>
